<?xml version="1.0" standalone="no"?>
<!DOCTYPE svg PUBLIC "-//W3C//DTD SVG 20010904//EN"
 "http://www.w3.org/TR/2001/REC-SVG-20010904/DTD/svg10.dtd">
<svg version="1.0" xmlns="http://www.w3.org/2000/svg"
 width="2816.000000pt" height="1536.000000pt" viewBox="0 0 2816.000000 1536.000000"
 preserveAspectRatio="xMidYMid meet">

<g transform="translate(0.000000,1536.000000) scale(0.100000,-0.100000)"
fill="#000000" stroke="none">
<path d="M0 7680 l0 -7680 14080 0 14080 0 0 7680 0 7680 -14080 0 -14080 0 0
-7680z m14185 6736 c95 -18 141 -38 420 -181 132 -67 330 -169 440 -225 110
-56 281 -144 380 -195 99 -51 261 -134 360 -185 99 -51 299 -154 445 -230 146
-76 391 -202 545 -280 154 -78 330 -168 390 -200 61 -32 200 -104 310 -160
110 -57 247 -127 305 -158 58 -30 215 -111 350 -180 135 -68 306 -156 380
-195 74 -38 218 -112 320 -165 102 -52 232 -119 290 -150 186 -97 320 -167
525 -272 110 -56 225 -118 255 -137 135 -85 234 -222 275 -379 12 -46 15 -125
15 -375 0 -342 -2 -354 -56 -418 -48 -58 -95 -74 -226 -79 l-117 -4 -3 -272
-3 -271 -29 -63 c-34 -73 -86 -124 -165 -161 -51 -24 -69 -26 -203 -29 l-148
-4 0 -2728 0 -2727 108 -6 c59 -3 124 -10 145 -17 48 -14 112 -71 140 -124 22
-40 22 -50 25 -505 3 -512 2 -520 -59 -594 -17 -21 -50 -48 -72 -60 l-42 -22
-5385 -3 c-4969 -2 -5388 -1 -5434 14 -62 21 -125 84 -149 150 -15 44 -17 95
-17 495 0 489 1 499 60 571 17 20 56 49 88 65 49 24 71 28 165 32 l107 3 0
347 c0 190 1 666 0 1056 0 391 0 1462 0 2381 l0 1672 -147 4 c-124 3 -156 7
-195 25 -70 32 -141 103 -174 176 l-29 62 -3 268 -3 267 -90 0 c-50 0 -110 5
-134 11 -54 14 -118 67 -148 123 -21 40 -22 49 -22 376 0 302 2 340 19 390 45
133 107 225 199 298 82 65 203 131 1032 557 105 54 195 101 200 105 6 4 105
55 220 114 116 58 235 119 265 135 30 16 73 38 95 49 38 18 100 51 450 232 83
43 249 128 370 190 222 114 386 199 570 295 55 29 208 108 340 175 132 67 281
144 330 170 50 26 198 103 330 170 132 67 272 139 310 160 39 21 207 107 375
193 168 85 403 205 522 266 231 118 271 136 358 156 72 17 139 17 225 1z
m6328 -12214 c53 -24 98 -80 117 -146 25 -90 -27 -203 -112 -245 l-44 -21
-6390 0 c-6197 0 -6390 1 -6429 19 -124 57 -165 228 -79 331 60 71 72 75 264
80 96 3 2977 4 6401 3 6212 -1 6227 -1 6272 -21z"/>
<path d="M14055 13990 c-16 -4 -68 -27 -115 -52 -102 -54 -303 -160 -665 -348
-71 -37 -251 -129 -400 -205 -148 -76 -337 -172 -420 -215 -82 -43 -231 -119
-330 -170 -99 -51 -243 -125 -320 -165 -77 -40 -230 -119 -340 -175 -110 -56
-245 -126 -300 -155 -108 -57 -191 -99 -1200 -615 -132 -68 -294 -151 -360
-185 -66 -34 -219 -113 -340 -175 -395 -203 -736 -380 -763 -397 -15 -9 -39
-28 -54 -42 l-28 -25 0 -188 0 -188 5660 0 5659 0 3 186 3 187 -40 34 c-22 19
-89 60 -150 92 -60 31 -191 99 -290 150 -99 52 -227 118 -285 149 -58 30 -206
106 -330 170 -124 63 -265 136 -315 162 -49 26 -175 91 -280 145 -404 207
-577 296 -780 400 -195 100 -347 179 -665 343 -165 85 -427 219 -735 377 -137
70 -254 131 -260 135 -5 4 -158 83 -340 175 -181 92 -379 193 -440 225 -411
215 -708 367 -730 372 -11 3 -33 2 -50 -2z"/>
<path d="M8810 10070 l0 -180 1000 0 c550 0 1003 0 1008 0 4 0 7 80 7 178 l0
177 -1007 3 -1008 2 0 -180z"/>
<path d="M11268 9972 l-3 -278 -32 -64 c-39 -79 -104 -133 -194 -161 -52 -16
-93 -19 -285 -19 l-224 0 0 -2729 0 -2728 114 -6 c95 -4 123 -10 170 -32 62
-29 100 -71 127 -137 16 -38 18 -82 18 -380 l1 -338 3125 0 3125 0 0 345 c0
382 0 382 64 453 58 64 112 84 244 90 l112 5 0 2728 0 2729 -212 0 c-117 0
-232 5 -256 10 -112 26 -187 86 -234 187 l-30 63 -5 268 -5 267 -2808 3 -2809
2 -3 -278z m4180 -1489 c18 -25 32 -83 26 -108 -5 -19 5 -27 73 -59 151 -72
214 -167 168 -256 -20 -38 -43 -50 -100 -50 -41 0 -51 5 -98 49 -67 63 -90 74
-152 74 -70 0 -112 -24 -136 -78 -35 -78 -3 -135 91 -161 200 -56 307 -102
356 -156 64 -69 84 -123 85 -225 1 -115 -29 -190 -107 -265 -37 -35 -134 -88
-161 -88 -7 0 -13 -12 -13 -27 0 -44 -18 -98 -39 -117 -29 -26 -83 -36 -118
-21 -42 18 -63 52 -63 103 0 32 -4 44 -17 48 -50 17 -123 57 -160 89 -57 49
-108 151 -100 201 7 39 38 80 69 90 34 10 87 -16 125 -62 46 -57 104 -91 169
-99 165 -22 262 172 120 239 -20 9 -84 30 -142 47 -58 16 -124 39 -146 50 -62
32 -125 95 -155 158 -24 47 -28 69 -28 136 0 70 4 89 32 146 39 79 111 150
188 185 l55 25 0 48 c0 58 26 97 73 109 38 10 87 -1 105 -25z m-1923 -8 c198
-65 254 -152 162 -252 -34 -38 -79 -40 -155 -5 -198 91 -401 55 -554 -99 -38
-37 -68 -74 -68 -83 0 -15 23 -16 215 -16 242 1 259 -2 288 -63 23 -46 17 -75
-22 -120 l-29 -32 -259 -5 -258 -5 -3 -52 -3 -53 243 0 c270 0 282 -3 311 -62
18 -36 18 -38 -1 -82 -32 -72 -48 -76 -287 -76 l-206 0 19 -28 c96 -134 244
-212 405 -212 89 0 125 9 228 59 57 27 69 30 101 21 20 -6 46 -23 58 -37 69
-88 10 -176 -163 -243 -143 -56 -339 -50 -496 14 -148 61 -309 206 -377 341
l-41 80 -81 5 c-72 4 -84 8 -111 34 -36 35 -48 84 -31 127 19 44 47 59 112 59
31 0 60 5 63 11 4 6 4 30 0 55 l-6 44 -56 0 c-51 0 -59 3 -89 36 -38 40 -45
85 -19 134 22 42 43 50 134 50 l80 0 43 83 c75 145 242 292 406 356 145 57
304 63 447 16z m1116 -166 c88 -42 138 -90 177 -168 24 -50 27 -67 27 -161 0
-89 -3 -112 -23 -151 -33 -67 -88 -127 -143 -155 l-49 -24 77 -118 c115 -176
133 -208 144 -244 20 -71 -38 -148 -112 -148 -60 0 -95 40 -233 270 l-123 205
-46 3 -47 3 0 -185 c0 -107 -5 -197 -11 -213 -35 -94 -151 -110 -200 -29 -18
29 -19 60 -19 544 0 559 -1 546 57 592 26 21 35 21 238 18 l210 -3 76 -36z
m-379 -1521 c64 -30 148 -103 185 -162 45 -70 55 -115 62 -261 l6 -140 48 -5
c55 -7 85 -32 96 -81 5 -27 6 -400 2 -693 -1 -31 -9 -46 -40 -77 l-39 -40
-507 3 -507 3 -34 37 -34 38 0 371 0 371 34 34 c28 28 42 34 75 34 l41 0 0 99
c0 54 5 122 10 151 28 148 125 262 277 326 51 22 70 24 163 21 88 -2 114 -7
162 -29z"/>
<path d="M14290 7986 l0 -146 113 0 c124 0 164 12 201 62 28 39 28 117 0 155
-41 54 -78 68 -201 72 l-113 3 0 -146z"/>
<path d="M14002 6630 c-57 -24 -109 -71 -137 -121 -27 -50 -29 -61 -29 -169
l-1 -115 254 -3 253 -2 -5 118 c-3 86 -9 127 -22 153 -53 102 -111 140 -220
146 -38 1 -80 -1 -93 -7z"/>
<path d="M14013 5969 c-62 -40 -75 -139 -24 -193 18 -19 21 -35 21 -109 0 -77
2 -87 22 -101 30 -21 71 -20 98 2 19 16 22 27 21 97 0 73 2 84 29 124 36 53
38 96 7 142 -41 61 -114 77 -174 38z"/>
<path d="M17349 10153 c0 -54 -3 -135 -5 -180 l-6 -83 879 -1 c483 0 910 -1
948 -1 39 -1 96 0 128 1 l57 1 0 180 0 180 -1000 0 -1000 0 -1 -97z"/>
<path d="M9360 6720 l0 -2730 370 0 370 0 -2 2728 -3 2727 -367 3 -368 2 0
-2730z"/>
<path d="M18065 9438 c-3 -7 -4 -1235 -3 -2728 l3 -2715 373 -3 372 -2 -2
2647 c-1 1457 -3 2685 -5 2731 l-5 82 -364 0 c-283 0 -366 -3 -369 -12z"/>
<path d="M8939 3548 c0 -2 -1 -103 -2 -226 l-2 -222 793 0 792 0 0 225 0 225
-790 0 c-434 0 -790 -1 -791 -2z"/>
<path d="M17649 3546 c-2 -2 -3 -104 -1 -225 l3 -221 790 0 789 0 -2 223 -3
222 -786 3 c-432 1 -787 0 -790 -2z"/>
</g>
</svg>
